/* XPM */
static char * bell_xpm[] = {
"7 13 3 1",
" 	c #000000",
".	c #ECEB16",
"+	c #FFFFFF",
"   .   ",
"   .   ",
"  ...  ",
" .+... ",
" .+... ",
" ..... ",
".......",
"   +   ",
"    +++",
"      +",
"    +++",
"    +  ",
"    +++"};
