/* XPM */
static char * Calendar_xpm[] = {
"13 13 4 1",
" 	c #FFFFFF",
".	c #000000",
"+	c #0EBC3D",
"@	c #FF001E",
"             ",
" ........... ",
" ........... ",
" ........... ",
"             ",
" ........... ",
" .+.+.+.+.@. ",
" ........... ",
" .+.+.+.+.@. ",
" ........... ",
" .+.+.+.+.@. ",
" ........... ",
"             "};
