/* XPM */
static char * clock_xpm[] = {
"30 14 3 1",
" 	c #000000",
".	c #ECEB16",
"+	c #FFFFFF",
"                              ",
"          .       .           ",
"         ... +++ ...          ",
"  +     ...++   ++...     +   ",
" +  +    .+   +   +.    +  +  ",
" + +  +   +   +   +   +  + +  ",
"+  + +   +    +    +   + +  + ",
"+  + +   +    +++  +   + +  + ",
" + +  +  +         +  +  + +  ",
" +  +     +       +     +  +  ",
"  +       +       +       +   ",
"           ++   ++            ",
"          +  +++  +           ",
"         +         +          "};
