/* XPM */
static char * Humidity_xpm[] = {
"13 13 4 1",
" 	c None",
".	c #000000",
"+	c #FFFFFF",
"@	c #1E02EB",
"......+......",
"......+......",
".....+@+.....",
".....+@+.....",
"....+@@@+....",
"....+@@@+....",
"...+@@@@@+...",
"...+@@@@@+...",
"....+@@@+....",
".....+++.....",
".............",
".............",
"............."};
