/* XPM */
static char * lux_xpm[] = {
"16 16 4 1",
" 	c #000000",
".	c #ECEB16",
"+	c #1E02EB",
"@	c #FFFFFF",
"                ",
"        .       ",
"        .       ",
"    .       .   ",
"       +++      ",
"      +   +     ",
"     +     +    ",
"  .. +  +@ + .. ",
"     +     +    ",
"      +   +     ",
"       + +      ",
"    .  + +  .   ",
"       @@@      ",
"                ",
"       @@@      ",
"                "};
