/* XPM */
static char * Pomidoro_xpm[] = {
"14 14 5 1",
" 	c None",
".	c #000000",
"+	c #147500",
"@	c #FB0005",
"#	c #FFFFFF",
"......+.......",
"......+.......",
".....+++......",
"...@+++++@....",
"..@@+@++@@@...",
".@@+@@@+@@@@..",
"@@@@@@@@@@@@@.",
"@@@@@@@@@@@#@@",
"@@@@@@@@@@@#@@",
"@@@@@@@@@@@@@.",
".@@@@@@@@@@@@.",
".@@@@@@@@@@@..",
"..@@@@@@@@@...",
"....@@@@@....."};
