/* XPM */
static char * Pressure_xpm[] = {
"13 13 2 1",
" 	c #000000",
".	c #FFFFFF",
"  .     .    ",
"   .     .  .",
"   .     .   ",
"  .     .  ..",
" .     .     ",
" .     .    .",
"  .     .    ",
"   .     . ..",
"   .     .   ",
"  .     .   .",
"..... .....  ",
" ...   ... ..",
"  .     .    "};
