/* XPM */
static char * sleep1_xpm[] = {
"23 15 2 1",
" 	c #000000",
".	c #FFFFFF",
"                       ",
"                       ",
"                .......",
"                    .. ",
"                   ..  ",
"                  ..   ",
"        ......   ..    ",
"           ..   ..     ",
"          ..   ........",
"         ..            ",
" ....   ..             ",
"   .   ......          ",
"  .                    ",
" .                     ",
"....                   "};
