/* XPM */
static char * Temperature_xpm[] = {
"13 13 3 1",
" 	c #000000",
".	c #FFFFFF",
"+	c #FF0000",
"    .        ",
"    ...   .  ",
"    .    . . ",
"    ..    .  ",
"    .        ",
"    ...      ",
"    .        ",
"    .        ",
"   ...       ",
"  .+++.      ",
"  .+++.      ",
"  .+++.      ",
"   ...       "};
